<svg id="Layer_1" data-name="Layer 1" xmlns="http://www.w3.org/2000/svg" viewBox="0 0 512 512"><title>reset-button</title><path d="M305.19,450C198.68,450,112,363.35,112,256.83V203.35a17.54,17.54,0,0,1,35.07,0v53.48c0,87.17,70.92,158.09,158.09,158.09S463.28,344,463.28,256.83,392.36,98.74,305.19,98.74H278.28a17.54,17.54,0,0,1,0-35.07h26.91c106.51,0,193.17,86.65,193.17,193.17S411.7,450,305.19,450Z"/><path d="M227.93,219.6H31.18a17.54,17.54,0,0,1-12.95-29.36L116.61,82.51a17.54,17.54,0,0,1,12.95-5.71h0a17.54,17.54,0,0,1,12.95,5.71l98.37,107.73a17.54,17.54,0,0,1-12.95,29.36Zm-157-35.07H188.17l-58.61-64.19Z"/></svg>