<svg id="Layer_1" data-name="Layer 1" xmlns="http://www.w3.org/2000/svg" viewBox="0 0 512 512"><title>simulation-scale</title><path d="M336.62,479.42H175.38a17.17,17.17,0,0,1,0-34.35H336.62a17.17,17.17,0,0,1,0,34.35Z"/><path d="M244.26,379H175.38a17.17,17.17,0,1,1,0-34.35h68.88a17.17,17.17,0,0,1,0,34.35Z"/><path d="M244.26,267.3H175.38a17.17,17.17,0,0,1,0-34.35h68.88a17.17,17.17,0,0,1,0,34.35Z"/><path d="M244.26,166.6H175.38a17.17,17.17,0,0,1,0-34.35h68.88a17.17,17.17,0,0,1,0,34.35Z"/><path d="M244.26,66.93H175.38a17.17,17.17,0,0,1,0-34.35h68.88a17.17,17.17,0,0,1,0,34.35Z"/></svg>