<svg id="Layer_1" data-name="Layer 1" xmlns="http://www.w3.org/2000/svg" viewBox="0 0 512 512"><title>timer-icon</title><path d="M256,450c-85,0-154.1-69.13-154.1-154.1S171,141.8,256,141.8s154.1,69.13,154.1,154.1S341,450,256,450Zm0-285.36c-72.38,0-131.26,58.88-131.26,131.26S183.62,427.16,256,427.16,387.26,368.28,387.26,295.9,328.38,164.64,256,164.64Z"/><path d="M256,334a11.42,11.42,0,0,1-11.42-11.42V236.89a11.42,11.42,0,1,1,22.84,0v85.66A11.42,11.42,0,0,1,256,334Z"/><path d="M360.06,209.76a11.42,11.42,0,0,1-8.08-19.5l29-29a11.42,11.42,0,1,1,16.15,16.15l-29,29A11.39,11.39,0,0,1,360.06,209.76Z"/><path d="M298.19,86.51a5.23,5.23,0,0,1,0,10.47H209.67a5.23,5.23,0,0,1,0-10.47h88.51m0-22.84H209.67a28.08,28.08,0,0,0,0,56.15h88.51a28.08,28.08,0,0,0,0-56.15Z"/><path d="M256,158.93a5.71,5.71,0,0,1-5.71-5.71V110.31a5.71,5.71,0,0,1,11.42,0v42.91A5.71,5.71,0,0,1,256,158.93Z"/></svg>