<svg id="Layer_1" data-name="Layer 1" xmlns="http://www.w3.org/2000/svg" viewBox="0 0 512 512"><title>plate-distance</title><path d="M32.58,336.62V175.38a17.17,17.17,0,0,1,34.35,0V336.62a17.17,17.17,0,0,1-34.35,0Z"/><path d="M445.07,336.62V175.38a17.17,17.17,0,0,1,34.35,0V336.62a17.17,17.17,0,0,1-34.35,0Z"/><path d="M123,283.09a12.19,12.19,0,0,1-12.17-12.17V175.38a12.17,12.17,0,0,1,24.35,0v95.53A12.19,12.19,0,0,1,123,283.09Z"/><path d="M256.39,283.09a12.19,12.19,0,0,1-12.17-12.17V175.38a12.17,12.17,0,0,1,24.35,0v95.53A12.19,12.19,0,0,1,256.39,283.09Z"/><path d="M389.75,283.09a12.19,12.19,0,0,1-12.17-12.17V175.38a12.17,12.17,0,0,1,24.35,0v95.53A12.19,12.19,0,0,1,389.75,283.09Z"/><path d="M49.76,319.44H460.37a17.17,17.17,0,0,1,0,34.35H49.76a17.17,17.17,0,0,1,0-34.35Z"/><path d="M189.71,235.32a12.19,12.19,0,0,1-12.17-12.17V175.38a12.17,12.17,0,0,1,24.35,0v47.77A12.19,12.19,0,0,1,189.71,235.32Z"/><path d="M323.07,235.32a12.19,12.19,0,0,1-12.17-12.17V175.38a12.17,12.17,0,0,1,24.35,0v47.77A12.19,12.19,0,0,1,323.07,235.32Z"/></svg>