<svg id="Layer_1" data-name="Layer 1" xmlns="http://www.w3.org/2000/svg" viewBox="0 0 512 512"><title>power-icon</title><path d="M442,155.24V413H70V155.24H442m0-37H70a37,37,0,0,0-37,37V413a37,37,0,0,0,37,37H442a37,37,0,0,0,37-37V155.24a37,37,0,0,0-37-37Z"/><path d="M204.81,302.62H120.45a18.52,18.52,0,0,1,0-37h84.36a18.52,18.52,0,1,1,0,37Z"/><path d="M390,302.62H305.64a18.52,18.52,0,0,1,0-37H390a18.52,18.52,0,0,1,0,37Z"/><path d="M347.82,344.8a18.52,18.52,0,0,1-18.52-18.52V241.92a18.52,18.52,0,1,1,37,0v84.37A18.52,18.52,0,0,1,347.82,344.8Z"/><path d="M396.18,100.71H337.54a18.52,18.52,0,0,1,0-37h58.64a18.52,18.52,0,1,1,0,37Z"/><path d="M173.89,100.71H115.24a18.52,18.52,0,1,1,0-37h58.64a18.52,18.52,0,1,1,0,37Z"/></svg>